<?xml version="1.0" encoding="UTF-8" standalone="no"?>
<!-- Created with Inkscape (http://www.inkscape.org/) -->

<svg
   width="270mm"
   height="270mm"
   viewBox="0 0 270 270"
   version="1.1"
   id="svg1"
   xml:space="preserve"
   inkscape:version="1.4.2 (f4327f4, 2025-05-13)"
   sodipodi:docname="mk-clouds-favicon.svg"
   xmlns:inkscape="http://www.inkscape.org/namespaces/inkscape"
   xmlns:sodipodi="http://sodipodi.sourceforge.net/DTD/sodipodi-0.dtd"
   xmlns:xlink="http://www.w3.org/1999/xlink"
   xmlns="http://www.w3.org/2000/svg"
   xmlns:svg="http://www.w3.org/2000/svg"><sodipodi:namedview
     id="namedview1"
     pagecolor="#ffffff"
     bordercolor="#000000"
     borderopacity="0.25"
     inkscape:showpageshadow="2"
     inkscape:pageopacity="0.0"
     inkscape:pagecheckerboard="true"
     inkscape:deskcolor="#d1d1d1"
     inkscape:document-units="mm"
     inkscape:zoom="0.73772364"
     inkscape:cx="-20.332817"
     inkscape:cy="537.46414"
     inkscape:window-width="3440"
     inkscape:window-height="1369"
     inkscape:window-x="-8"
     inkscape:window-y="-8"
     inkscape:window-maximized="1"
     inkscape:current-layer="layer2" /><defs
     id="defs1"><linearGradient
       id="linearGradient78"
       inkscape:collect="always"><stop
         style="stop-color:#ffffff;stop-opacity:1;"
         offset="0.59600997"
         id="stop77" /><stop
         style="stop-color:#ffffff;stop-opacity:0.17173253;"
         offset="1"
         id="stop78" /></linearGradient><linearGradient
       id="linearGradient73"
       inkscape:collect="always"><stop
         style="stop-color:#ffffff;stop-opacity:1;"
         offset="0.59600997"
         id="stop73" /><stop
         style="stop-color:#ffffff;stop-opacity:0;"
         offset="1"
         id="stop74" /></linearGradient><linearGradient
       inkscape:collect="always"
       xlink:href="#linearGradient73"
       id="linearGradient74"
       x1="89.094688"
       y1="75.197777"
       x2="89.094688"
       y2="206.53053"
       gradientUnits="userSpaceOnUse" /><linearGradient
       inkscape:collect="always"
       xlink:href="#linearGradient78"
       id="linearGradient75"
       x1="210.12872"
       y1="92.960648"
       x2="210.12872"
       y2="188.76765"
       gradientUnits="userSpaceOnUse" /></defs><g
     inkscape:groupmode="layer"
     id="layer2"
     inkscape:label="Layer 2"><path
       style="fill:#2b4161;fill-opacity:1;stroke-width:8.00529718;stroke:#000e1a;stroke-opacity:1;stroke-dasharray:none"
       d="M 95.609648,235.20019 C 79.939714,233.7672 64.860653,223.48111 57.88102,209.46384 l -2.708179,-5.43888 -6.414915,0.34305 C 2.8603766,206.82249 -16.511207,147.28032 21.7926,121.48507 l 1.650039,-1.1112 -1.46022,-4.31386 C 4.6846532,64.958079 68.674904,24.922326 107.31894,62.668891 l 5.48306,5.355716 2.61889,-2.350881 c 20.72662,-18.605499 52.85824,-15.090089 69.12529,7.562762 2.43901,3.39646 3.69129,4.58355 4.49796,4.263826 19.12111,-7.578932 39.90929,-5.192256 55.70771,6.39575 46.793,34.322266 21.25451,108.184126 -36.4421,105.396966 l -8.45407,-0.4084 -2.98113,4.18535 c -11.26186,15.81106 -32.51533,21.34967 -51.15552,13.33104 -0.75584,-0.32516 -1.60045,0.62754 -3.01614,3.40209 -8.62724,16.90819 -27.66283,27.17395 -47.093242,25.39708 z"
       id="path99"
       mask="none"
       transform="matrix(0.99153096,0,0,0.99153096,1.1451203,1.1991592)" /><path
       style="display:inline;fill:#ffffff;fill-opacity:1;stroke:none;stroke-width:1.73617;stroke-dasharray:none;stroke-opacity:1"
       d="M 95.945046,234.40743 C 80.407821,232.98658 65.456467,222.7876 58.535944,208.88904 l -2.685245,-5.39282 -6.360585,0.34015 c -45.5088418,2.43369 -64.716367,-56.60421 -26.736956,-82.181 l 1.636065,-1.10179 -1.447854,-4.27733 C 5.790099,65.607106 69.238413,25.910417 107.55517,63.337305 l 5.43663,5.310359 2.59671,-2.330971 c 20.55108,-18.447929 52.41058,-14.962292 68.53986,7.49871 2.41836,3.367697 3.66003,4.544733 4.45987,4.227716 18.95917,-7.514745 39.57129,-5.148281 55.23592,6.341586 46.39671,34.031585 21.07451,107.267905 -36.13347,104.504355 l -8.38248,-0.40494 -2.95588,4.1499 c -11.16648,15.67716 -32.23995,21.16886 -50.72228,13.21814 -0.74944,-0.32241 -1.5869,0.62223 -2.9906,3.37328 -8.55417,16.76499 -27.42855,26.94381 -46.694404,25.18199 z"
       id="path97"
       clip-path="none"
       mask="none" /></g><g
     inkscape:label="Layer 1"
     inkscape:groupmode="layer"
     id="layer1"><text
       xml:space="preserve"
       style="font-style:normal;font-variant:normal;font-weight:bold;font-stretch:normal;font-size:164.608px;font-family:'Microsoft PhagsPa';-inkscape-font-specification:'Microsoft PhagsPa, Bold';font-variant-ligatures:normal;font-variant-caps:normal;font-variant-numeric:normal;font-variant-east-asian:normal;text-align:start;writing-mode:lr-tb;direction:ltr;text-anchor:start;display:inline;fill:url(#linearGradient75);stroke-width:2.02872;paint-order:fill markers stroke"
       x="149.04372"
       y="198.49303"
       id="text1"
       mask="none"
       transform="matrix(0.99153096,0,0,0.99153096,1.6698054,1.1991592)"><tspan
         sodipodi:role="line"
         id="tspan1"
         style="font-style:normal;font-variant:normal;font-weight:bold;font-stretch:normal;font-size:164.608px;font-family:'Microsoft PhagsPa';-inkscape-font-specification:'Microsoft PhagsPa, Bold';font-variant-ligatures:normal;font-variant-caps:normal;font-variant-numeric:normal;font-variant-east-asian:normal;fill:url(#linearGradient75);fill-opacity:1;stroke-width:2.02872"
         x="149.04372"
         y="198.49303">K</tspan></text><path
       style="display:inline;fill:#ffffff;fill-opacity:1;stroke:none;stroke-width:1.73617;stroke-dasharray:none;stroke-opacity:1"
       d="M 96.469731,234.40743 C 80.932506,232.98658 65.981152,222.7876 59.060629,208.88904 l -2.685245,-5.39282 -6.360584,0.34015 c -45.5088427,2.43369 -64.716368,-56.60421 -26.736957,-82.181 l 1.636065,-1.10179 -1.447854,-4.27733 C 6.3147841,65.607106 69.763098,25.910417 108.07986,63.337305 l 5.43662,5.310359 2.59671,-2.330971 c 20.55109,-18.447929 52.41058,-14.962292 68.53987,7.49871 2.41835,3.367697 3.66002,4.544733 4.45986,4.227716 18.95918,-7.514745 39.5713,-5.148281 55.23592,6.341586 46.39671,34.031585 21.07452,107.267905 -36.13347,104.504355 l -8.38247,-0.40494 -2.95588,4.1499 c -11.16649,15.67716 -32.23996,21.16886 -50.72228,13.21814 -0.74944,-0.32241 -1.5869,0.62223 -2.9906,3.37328 -8.55418,16.76499 -27.42855,26.94381 -46.694409,25.18199 z"
       id="path96"
       clip-path="none"
       mask="none" /><text
       xml:space="preserve"
       style="font-style:normal;font-variant:normal;font-weight:bold;font-stretch:normal;font-size:164.608px;font-family:'Microsoft PhagsPa';-inkscape-font-specification:'Microsoft PhagsPa, Bold';font-variant-ligatures:normal;font-variant-caps:normal;font-variant-numeric:normal;font-variant-east-asian:normal;text-align:start;writing-mode:lr-tb;direction:ltr;text-anchor:start;display:inline;fill:url(#linearGradient74);stroke-width:2.02872;paint-order:fill markers stroke"
       x="10.246812"
       y="198.49303"
       id="text48"
       mask="none"
       transform="matrix(0.99153096,0,0,0.99153096,3.2438608,1.1991592)"><tspan
         sodipodi:role="line"
         id="tspan48"
         style="font-style:normal;font-variant:normal;font-weight:bold;font-stretch:normal;font-size:164.608px;font-family:'Microsoft PhagsPa';-inkscape-font-specification:'Microsoft PhagsPa, Bold';font-variant-ligatures:normal;font-variant-caps:normal;font-variant-numeric:normal;font-variant-east-asian:normal;fill:url(#linearGradient74);fill-opacity:1;stroke-width:2.02872"
         x="10.246812"
         y="198.49303">M</tspan></text><path
       style="display:inline;fill:#ffffff;fill-opacity:1;stroke:none;stroke-width:1.73617;stroke-dasharray:none;stroke-opacity:1"
       d="M 98.043787,234.40743 C 82.506561,232.98658 67.555207,222.7876 60.634684,208.88904 l -2.685244,-5.39282 -6.360585,0.34015 c -45.5088423,2.43369 -64.716367,-56.60421 -26.736957,-82.181 l 1.636065,-1.10179 -1.447853,-4.27733 C 7.8888395,65.607106 71.337153,25.910417 109.65391,63.337305 l 5.43663,5.310359 2.59671,-2.330971 c 20.55108,-18.447929 52.41058,-14.962292 68.53986,7.49871 2.41836,3.367697 3.66003,4.544733 4.45987,4.227716 18.95917,-7.514745 39.5713,-5.148281 55.23592,6.341586 46.39671,34.031585 21.07451,107.267905 -36.13347,104.504355 l -8.38247,-0.40494 -2.95589,4.1499 c -11.16648,15.67716 -32.23995,21.16886 -50.72228,13.21814 -0.74944,-0.32241 -1.5869,0.62223 -2.9906,3.37328 -8.55417,16.76499 -27.42855,26.94381 -46.694403,25.18199 z"
       id="path95"
       clip-path="none"
       mask="none" /></g><g
     inkscape:groupmode="layer"
     id="g78"
     inkscape:label="Mask"
     style="display:inline;stroke:none;stroke-opacity:1;fill:#37005d;fill-opacity:1" /></svg>
