<?xml version="1.0" encoding="UTF-8" standalone="no"?>
<!-- Created with Inkscape (http://www.inkscape.org/) -->

<svg
   width="270mm"
   height="270mm"
   viewBox="0 0 270 270"
   version="1.1"
   id="svg1"
   xml:space="preserve"
   inkscape:version="1.4.2 (f4327f4, 2025-05-13)"
   sodipodi:docname="mk-clouds-favicon.svg"
   xmlns:inkscape="http://www.inkscape.org/namespaces/inkscape"
   xmlns:sodipodi="http://sodipodi.sourceforge.net/DTD/sodipodi-0.dtd"
   xmlns:xlink="http://www.w3.org/1999/xlink"
   xmlns="http://www.w3.org/2000/svg"
   xmlns:svg="http://www.w3.org/2000/svg"><sodipodi:namedview
     id="namedview1"
     pagecolor="#ffffff"
     bordercolor="#000000"
     borderopacity="0.25"
     inkscape:showpageshadow="2"
     inkscape:pageopacity="0.0"
     inkscape:pagecheckerboard="true"
     inkscape:deskcolor="#d1d1d1"
     inkscape:document-units="mm"
     inkscape:zoom="1.0432988"
     inkscape:cx="285.63246"
     inkscape:cy="456.72439"
     inkscape:window-width="3440"
     inkscape:window-height="1369"
     inkscape:window-x="-8"
     inkscape:window-y="-8"
     inkscape:window-maximized="1"
     inkscape:current-layer="g78"
     showgrid="false" /><defs
     id="defs1"><linearGradient
       id="linearGradient78"
       inkscape:collect="always"><stop
         style="stop-color:#ffffff;stop-opacity:1;"
         offset="0.59600997"
         id="stop77" /><stop
         style="stop-color:#ffffff;stop-opacity:0.17173253;"
         offset="1"
         id="stop78" /></linearGradient><linearGradient
       id="linearGradient73"
       inkscape:collect="always"><stop
         style="stop-color:#ffffff;stop-opacity:1;"
         offset="0.59600997"
         id="stop73" /><stop
         style="stop-color:#ffffff;stop-opacity:0;"
         offset="1"
         id="stop74" /></linearGradient><linearGradient
       inkscape:collect="always"
       xlink:href="#linearGradient73"
       id="linearGradient74"
       x1="89.094688"
       y1="75.197777"
       x2="89.094688"
       y2="206.53053"
       gradientUnits="userSpaceOnUse" /><linearGradient
       inkscape:collect="always"
       xlink:href="#linearGradient78"
       id="linearGradient75"
       x1="210.12872"
       y1="92.960648"
       x2="210.12872"
       y2="188.76765"
       gradientUnits="userSpaceOnUse" /><mask
       maskUnits="userSpaceOnUse"
       id="mask3"><path
         style="fill:#ffffff;fill-opacity:1;stroke:none;stroke-width:4.97333;stroke-dasharray:none;stroke-opacity:1"
         d="M 93.492982,235.20019 C 77.823047,233.7672 62.743985,223.48111 55.764354,209.46384 l -2.708179,-5.43888 -6.414915,0.34305 C 0.74370993,206.82249 -18.627874,147.28032 19.675933,121.48507 l 1.650039,-1.1112 -1.46022,-4.31386 C 2.5679865,64.958079 66.558238,24.922326 105.20227,62.668891 l 5.48306,5.355716 2.61889,-2.35088 c 20.72662,-18.605501 52.85824,-15.090089 69.12529,7.562761 2.43901,3.39646 3.69129,4.583551 4.49796,4.263825 19.12111,-7.578931 39.90929,-5.192256 55.70771,6.395751 46.79301,34.322266 21.25451,108.184126 -36.4421,105.396966 l -8.45407,-0.4084 -2.98113,4.18535 c -11.26186,15.81106 -32.51533,21.34967 -51.15552,13.33104 -0.75584,-0.32516 -1.60045,0.62754 -3.01614,3.40209 -8.62724,16.90819 -27.66283,27.17395 -47.093238,25.39708 z"
         id="path4"
         mask="none"
         inkscape:label="Cloud - Mask" /></mask><mask
       maskUnits="userSpaceOnUse"
       id="mask4"><path
         style="fill:#ffffff;fill-opacity:1;stroke:none;stroke-width:4.97333;stroke-dasharray:none;stroke-opacity:1"
         d="M 95.080482,235.20019 C 79.410547,233.7672 64.331485,223.48111 57.351855,209.46384 l -2.70818,-5.43888 -6.414915,0.34305 C 2.33121,206.82249 -17.040374,147.28032 21.263433,121.48507 l 1.650039,-1.1112 -1.46022,-4.31386 C 4.1554865,64.958079 68.145738,24.922326 106.78977,62.668891 l 5.48306,5.355716 2.61889,-2.35088 c 20.72662,-18.605501 52.85824,-15.090089 69.12529,7.562761 2.43901,3.39646 3.69129,4.583551 4.49796,4.263825 19.12111,-7.578931 39.90929,-5.192256 55.70771,6.395751 46.79301,34.322266 21.25451,108.184126 -36.4421,105.396966 l -8.45407,-0.4084 -2.98113,4.18535 c -11.26186,15.81106 -32.51533,21.34967 -51.15552,13.33104 -0.75584,-0.32516 -1.60045,0.62754 -3.01614,3.40209 -8.62724,16.90819 -27.66283,27.17395 -47.093238,25.39708 z"
         id="path5"
         mask="none"
         inkscape:label="Cloud - Mask" /></mask><mask
       maskUnits="userSpaceOnUse"
       id="mask5"><path
         style="fill:#ffffff;fill-opacity:1;stroke:none;stroke-width:4.97333;stroke-dasharray:none;stroke-opacity:1"
         d="M 95.609649,235.20019 C 79.939714,233.7672 64.860652,223.48111 57.881021,209.46384 l -2.708179,-5.43888 -6.414915,0.34305 C 2.8603766,206.82249 -16.511207,147.28032 21.7926,121.48507 l 1.650039,-1.1112 -1.46022,-4.31386 C 4.6846532,64.958079 68.674904,24.922326 107.31894,62.668891 l 5.48306,5.355716 2.61889,-2.35088 c 20.72662,-18.605501 52.85824,-15.090089 69.12529,7.562761 2.43901,3.39646 3.69129,4.583551 4.49796,4.263825 19.12111,-7.578931 39.90929,-5.192256 55.70771,6.395751 46.793,34.322266 21.25451,108.184126 -36.4421,105.396966 l -8.45407,-0.4084 -2.98113,4.18535 c -11.26186,15.81106 -32.51533,21.34967 -51.15552,13.33104 -0.75584,-0.32516 -1.60045,0.62754 -3.01614,3.40209 -8.62724,16.90819 -27.66283,27.17395 -47.093241,25.39708 z"
         id="path6"
         mask="none"
         inkscape:label="Cloud - Mask" /></mask></defs><g
     inkscape:groupmode="layer"
     id="layer2"
     inkscape:label="Layer 2"><path
       style="fill:#2b4161;fill-opacity:1;stroke-width:4.97334338;stroke:#ffffff;stroke-opacity:1;stroke-dasharray:none"
       d="M 95.609648,235.20019 C 79.939714,233.7672 64.860653,223.48111 57.88102,209.46384 l -2.708179,-5.43888 -6.414915,0.34305 C 2.8603766,206.82249 -16.511207,147.28032 21.7926,121.48507 l 1.650039,-1.1112 -1.46022,-4.31386 C 4.6846532,64.958079 68.674904,24.922326 107.31894,62.668891 l 5.48306,5.355716 2.61889,-2.350881 c 20.72662,-18.605499 52.85824,-15.090089 69.12529,7.562762 2.43901,3.39646 3.69129,4.58355 4.49796,4.263826 19.12111,-7.578932 39.90929,-5.192256 55.70771,6.39575 46.793,34.322266 21.25451,108.184126 -36.4421,105.396966 l -8.45407,-0.4084 -2.98113,4.18535 c -11.26186,15.81106 -32.51533,21.34967 -51.15552,13.33104 -0.75584,-0.32516 -1.60045,0.62754 -3.01614,3.40209 -8.62724,16.90819 -27.66283,27.17395 -47.093242,25.39708 z"
       id="path99"
       mask="url(#mask5)"
       inkscape:label="Cloud"
       transform="matrix(1.0053599,0,0,1.0053599,-0.72471808,-0.75891805)" /></g><g
     inkscape:label="Layer 1"
     inkscape:groupmode="layer"
     id="layer1"><text
       xml:space="preserve"
       style="font-style:normal;font-variant:normal;font-weight:bold;font-stretch:normal;font-size:164.608px;font-family:'Microsoft PhagsPa';-inkscape-font-specification:'Microsoft PhagsPa, Bold';font-variant-ligatures:normal;font-variant-caps:normal;font-variant-numeric:normal;font-variant-east-asian:normal;text-align:start;writing-mode:lr-tb;direction:ltr;text-anchor:start;display:inline;fill:#ffffff;stroke-width:2.02872;paint-order:fill markers stroke;fill-opacity:1"
       x="149.04372"
       y="198.49303"
       id="text1"
       mask="url(#mask4)"
       transform="matrix(1.0053599,0,0,1.0053599,-0.19271517,-0.75891805)"
       inkscape:label="K"><tspan
         sodipodi:role="line"
         id="tspan1"
         style="font-style:normal;font-variant:normal;font-weight:bold;font-stretch:normal;font-size:164.608px;font-family:'Microsoft PhagsPa';-inkscape-font-specification:'Microsoft PhagsPa, Bold';font-variant-ligatures:normal;font-variant-caps:normal;font-variant-numeric:normal;font-variant-east-asian:normal;fill:#ffffff;fill-opacity:1;stroke-width:2.02872"
         x="149.04372"
         y="198.49303">K</tspan></text><text
       xml:space="preserve"
       style="font-style:normal;font-variant:normal;font-weight:bold;font-stretch:normal;font-size:164.608px;font-family:'Microsoft PhagsPa';-inkscape-font-specification:'Microsoft PhagsPa, Bold';font-variant-ligatures:normal;font-variant-caps:normal;font-variant-numeric:normal;font-variant-east-asian:normal;text-align:start;writing-mode:lr-tb;direction:ltr;text-anchor:start;display:inline;fill:#ffffff;stroke-width:2.02872;paint-order:fill markers stroke;fill-opacity:1"
       x="10.246812"
       y="198.49303"
       id="text48"
       mask="url(#mask3)"
       inkscape:label="M"
       transform="matrix(1.0053599,0,0,1.0053599,1.4032937,-0.75891805)"><tspan
         sodipodi:role="line"
         id="tspan48"
         style="font-style:normal;font-variant:normal;font-weight:bold;font-stretch:normal;font-size:164.608px;font-family:'Microsoft PhagsPa';-inkscape-font-specification:'Microsoft PhagsPa, Bold';font-variant-ligatures:normal;font-variant-caps:normal;font-variant-numeric:normal;font-variant-east-asian:normal;fill:#ffffff;fill-opacity:1;stroke-width:2.02872"
         x="10.246812"
         y="198.49303">M</tspan></text></g><g
     inkscape:groupmode="layer"
     id="g78"
     inkscape:label="Mask"
     style="display:inline;stroke:none;stroke-opacity:1;fill:#37005d;fill-opacity:1" /></svg>
